<svg id="visual" viewBox="0 0 900 900" width="900" height="900" xmlns="http://www.w3.org/2000/svg" xmlns:xlink="http://www.w3.org/1999/xlink" version="1.1"><g transform="translate(453.93925932457756 405.2169049433552)"><path d="M192.9 -287.6C249.5 -301.5 294.5 -248.7 332.1 -189.7C369.7 -130.7 399.8 -65.3 386.8 -7.5C373.8 50.3 317.7 100.7 281.1 161.4C244.5 222.2 227.5 293.4 183.9 336.9C140.3 380.4 70.2 396.2 22.6 357.1C-25 318 -50 223.9 -106.6 187.9C-163.2 151.9 -251.3 174 -313.8 152.3C-376.3 130.7 -413.2 65.3 -391.5 12.5C-369.9 -40.3 -289.7 -80.7 -233.4 -113C-177.1 -145.3 -144.5 -169.7 -109.6 -168.2C-74.7 -166.8 -37.3 -139.7 15.4 -166.4C68.2 -193.1 136.3 -273.6 192.9 -287.6" fill="#97ce89"></path></g></svg>