<svg id="visual" viewBox="0 0 900 600" width="900" height="600" xmlns="http://www.w3.org/2000/svg" xmlns:xlink="http://www.w3.org/1999/xlink" version="1.1"><g transform="translate(477.40048997618436 284.3436879759962)"><path d="M81.5 -130.6C112.9 -122.9 150.9 -116 170.2 -94.3C189.5 -72.7 190.3 -36.3 195.6 3.1C200.9 42.5 210.9 85 193.5 110C176.1 134.9 131.3 142.4 94.5 164.8C57.7 187.2 28.8 224.6 -4.3 232.1C-37.5 239.6 -75 217.2 -118.3 198.6C-161.6 179.9 -210.7 165 -236.1 132.5C-261.5 100 -263.3 50 -249.7 7.8C-236.1 -34.3 -207.3 -68.7 -185.9 -108.1C-164.4 -147.5 -150.5 -191.9 -120.7 -200.6C-91 -209.3 -45.5 -182.1 -10.2 -164.4C25 -146.6 50 -138.3 81.5 -130.6" fill="#97ce89"></path></g></svg>